<svg width="1068" height="1278" viewBox="0 0 1068 1278" fill="none" xmlns="http://www.w3.org/2000/svg">
<path d="M482.799 313.659L540.796 312.988L583.912 421.821L525.239 422.445L482.799 313.659Z" fill="#465064"/>
<path d="M591.93 313.659L649.927 312.988L693.043 421.821L634.37 422.445L591.93 313.659Z" fill="#465064"/>
<path d="M685.883 922.842L755.511 923.216L795.898 1032.05L726.896 1032L685.883 922.842Z" fill="#465064"/>
<path d="M799.021 922.842L868.649 923.216L909.037 1032.05L840.035 1032L799.021 922.842Z" fill="#465064"/>
<path d="M679.688 1032H558.594L372.07 492.938L183.594 1032H61.5234L313.477 313.25H429.688L679.688 1032ZM436.523 803.484L464.844 882.586H278.32L305.664 803.484H436.523Z" fill="#465064"/>
<path d="M1067.36 1031.04L951.397 1031.04L913.361 922.885L735.361 419.839L696.872 312.573L819.361 312.681L1030.36 922.885L1067.36 1031.04Z" fill="#465064"/>
</svg>
