<svg width="1071" height="1279" viewBox="0 0 1071 1279" fill="none" xmlns="http://www.w3.org/2000/svg">
<path d="M481.959 314.066L539.956 313.395L583.072 422.228L524.4 422.851L481.959 314.066Z" fill="#2ECC71"/>
<path d="M588.688 314.066L646.685 313.395L689.801 422.228L631.128 422.851L588.688 314.066Z" fill="#2ECC71"/>
<path d="M689.048 923.249L758.676 923.623L799.063 1032.46L730.061 1032.4L689.048 923.249Z" fill="#2ECC71"/>
<path d="M802.187 923.249L871.814 923.623L912.202 1032.46L843.2 1032.4L802.187 923.249Z" fill="#2ECC71"/>
<path d="M680.584 1032.41H559.49L372.967 493.344L184.49 1032.41H62.4199L314.373 313.657H430.584L680.584 1032.41ZM437.42 803.891L465.74 882.993H279.217L306.561 803.891H437.42Z" fill="white"/>
<path d="M1070.53 1031.44L954.562 1031.44L916.526 923.291L738.526 420.245L700.037 312.979L822.526 313.087L1033.53 923.291L1070.53 1031.44Z" fill="#2ECC71"/>
<path d="M306.547 803.925L437.393 803.921L465.721 883.019H279.186L306.547 803.925Z" fill="#2ECC71"/>
</svg>
